<svg xmlns="http://www.w3.org/2000/svg" viewBox="0 0 298 345.1"><defs><style>.cls-1{fill:#231f20;}</style></defs><title>Ресурс 9</title><g id="Слой_2" data-name="Слой 2"><g id="Layer_1" data-name="Layer 1"><path class="cls-1" d="M293.06,158a148.44,148.44,0,0,0-28.27-55.69l8.57-8.56a15.56,15.56,0,0,0,0-22,16,16,0,0,0-22,0l-8.56,8.56a148.9,148.9,0,0,0-29.73-18.63A151.19,151.19,0,0,0,182.72,51l-.31,0c-4.59-1.07-9.2-2-14-2.61V38.9h6.88a19.45,19.45,0,0,0,0-38.9H121.49a20,20,0,0,0-5,.7s0,0,0,0a19.41,19.41,0,0,0,5,38.18h8.06v9.44A149,149,0,0,0,15.7,129.79,147.56,147.56,0,0,0,0,196.09a149.48,149.48,0,0,0,149,149,146.38,146.38,0,0,0,21.85-1.63c.76-.1,1.48-.32,2.25-.45a148.93,148.93,0,0,0,120-185Zm-66.21,116a109.6,109.6,0,0,1-50.54,28.74,114.29,114.29,0,0,1-20.07,3c-1,.06-1.88.23-2.84.24-1.48.07-2.92.3-4.4.3a112.16,112.16,0,0,1-12-.69A110,110,0,0,1,38.88,196.09c0-2.33.2-4.6.33-6.9a109.24,109.24,0,0,1,31.92-71c2.38-2.37,4.87-4.6,7.42-6.74h0a109.89,109.89,0,0,1,125.21-10.81,4.62,4.62,0,0,1,.41.28,110.79,110.79,0,0,1,22.65,17.28c1.61,1.62,3.07,3.33,4.55,5l.17.18a113.76,113.76,0,0,1,8.29,10.89c1.63,2.44,3.26,4.89,4.69,7.43a108.89,108.89,0,0,1,14.39,51.07c0,1.09.15,2.15.15,3.26A109.38,109.38,0,0,1,226.85,273.94Z"/></g></g></svg>