<svg version="1" xmlns="http://www.w3.org/2000/svg" width="236" height="236" viewBox="0 0 177.000000 177.000000"><path d="M27.7 30.4c-4.2 1.6-9.3 6.3-10.8 10.3-.5 1.4-1.9 6.7-3 11.7-1.1 5-3.1 13.6-4.4 19.1C0 111-.2 112.2 1.4 113.8c1.1 1.1 3.5 1.6 7.8 1.7h6.1l1.2 5c2.5 10.8 9.2 19.2 19 24.1 5.2 2.5 7.1 2.9 14.5 2.9 7.1 0 9.5-.5 14.2-2.7 10.2-4.7 18.9-16 20-25.9.4-3.2.7-3.4 4.3-3.4 3.5 0 3.9.3 4.2 2.8 1.5 10.8 9.6 21.6 19.8 26.4 5.1 2.3 7.3 2.7 14.5 2.7 6.9 0 9.5-.5 14-2.6 9.7-4.5 17-13.5 19.5-24.3l1.1-5 6.5-.3c3.5-.2 6.9-.8 7.6-1.4 1.5-1.2 1.7-.2-3.7-23.3-9.8-42.6-12.1-50.9-14.5-54.1-4.6-6-16.3-9.5-19.9-5.8-1.9 1.8-1.9 2-.6 4.4.6 1.2 2.1 1.8 4.3 1.8 4.2 0 9.3 2.5 10.8 5.3.9 1.9 3.7 12.4 5.3 20.1.5 2.6 5.5 24 8.5 36.3 1.1 4.4 1.7 8.2 1.5 8.5-.3.3-1.8.5-3.3.6-2.5.1-3-.4-4.5-5-3.2-10-11.2-18.1-21.9-22.1-3.7-1.4-6.5-1.7-13-1.3-9.5.6-14.5 2.7-21.3 9-4.3 3.9-10.4 14.4-10.4 17.9 0 1.4-.7 1.7-4.1 1.4-4.2-.3-5.8-1.6-5.9-4.5 0-.8-1.3-3.8-3-6.6-14.7-25.7-52.1-22.5-62.4 5.4-1.9 5.3-2.4 5.7-5.3 5.8-1.8.1-3.3 0-3.3-.2 0-.3 1.1-5 2.5-10.7 1.3-5.6 4.7-19.8 7.5-31.5 2.7-11.7 5.5-22.2 6-23.3 1.5-2.6 6.2-4.9 10.4-4.9 2.5 0 3.8-.6 4.6-1.9 1.3-2.5 1.3-2.7-.6-4.5-1.9-1.9-6.6-2-11.7-.2zm31.4 57.7c5.9 1.8 14 9.8 16.2 16.1 3.1 9.4.4 21.9-6.2 28.2-5.7 5.4-10.1 7-18.6 7.1-9.3 0-13.6-1.7-19.6-7.7-10.7-10.8-9.6-29.4 2.3-39.1 7.4-6 15.9-7.5 25.9-4.6zm79 1c10 5.1 15.3 13.3 15.3 23.9-.1 22.8-25.4 35.1-43.3 21-12.6-10-13.2-29.4-1.1-40.3 8.2-7.4 20-9.3 29.1-4.6z"/></svg>