<?xml version="1.0" encoding="utf-8"?><svg xmlns="http://www.w3.org/2000/svg" xmlns:xlink="http://www.w3.org/1999/xlink"><symbol viewBox="0 0 42.08 47.04" id="android-logo" xmlns="http://www.w3.org/2000/svg"><title>android-logo</title><path d="M34.14 14H7.94v19.1a3.61 3.61 0 0 0 3.32 3.63v7.43a2.88 2.88 0 1 0 5.77 0v-7.42h8.06v7.42a2.89 2.89 0 1 0 5.77 0v-7.44a3.61 3.61 0 0 0 3.32-3.63V14.34a3.52 3.52 0 0 1-.04-.34zM2.89 15.68a2.89 2.89 0 0 1 2.89 2.89v12.37a2.89 2.89 0 0 1-2.89 2.89A2.89 2.89 0 0 1 0 30.94V18.56a2.89 2.89 0 0 1 2.89-2.88zm36.31 0a2.88 2.88 0 0 1 2.89 2.89v12.37a2.89 2.89 0 0 1-2.89 2.89 2.88 2.88 0 0 1-2.88-2.89V18.56a2.88 2.88 0 0 1 2.88-2.88zM8 12h26a10.48 10.48 0 0 0-3.19-7.28L33.32.46A.31.31 0 0 0 33.2 0a.3.3 0 0 0-.41.11l-2.37 4.15a13.78 13.78 0 0 0-7.93-3.4h-2.9a13.79 13.79 0 0 0-7.92 3.4L9.3.15a.3.3 0 1 0-.53.3l2.45 4.24A10.47 10.47 0 0 0 8 12zm17.32-5.2a1.49 1.49 0 0 1 3 0 1.49 1.49 0 0 1-3 0zm-11.14 0a1.49 1.49 0 0 1 3 0 1.49 1.49 0 0 1-3 0z" fill="#a4c639"/></symbol><symbol viewBox="0 0 46.21 56.75" id="apple-logo" xmlns="http://www.w3.org/2000/svg"><title>apple logo</title><path fill="#fff" d="M38.59 30.15a12.55 12.55 0 0 0 7.62 11.48 31 31 0 0 1-3.93 8.07c-2.37 3.46-4.82 6.9-8.69 7s-5-2.25-9.37-2.25-5.7 2.18-9.3 2.32S8.36 53 6 49.57c-4.87-7-8.6-19.91-3.6-28.59a13.89 13.89 0 0 1 11.74-7.11c3.67-.07 7.13 2.47 9.37 2.47s6.44-3 10.87-2.6a13.26 13.26 0 0 1 10.38 5.63c-.27.17-6.2 3.62-6.13 10.8M31.45 9.06A12.5 12.5 0 0 0 34.4 0 12.72 12.72 0 0 0 26 4.3c-1.84 2.12-3.45 5.52-3 8.78 3.18.25 6.44-1.62 8.42-4"/></symbol><symbol viewBox="0 0 300.39 346.55" id="clock" xmlns="http://www.w3.org/2000/svg"><title>Clock</title><path fill="#dfdfde" d="M298.89 176.16A142.34 142.34 0 0 0 270 106.69c-2.08-2.68-3.16-5 .79-7.25 2.54-1.48 4.25-4.12 6-6.58 5-6.9 4.3-15.62-1.81-21.15-5.79-5.24-15.61-5.14-21.43.27a57 57 0 0 0-5.63 5.68c-2.26 2.79-4.21 2.2-6.72.31a148.94 148.94 0 0 0-67.68-28.67c-5.13-.81-3.29-3.88-3.65-6.46-.47-3.32 1.5-3.83 4.24-3.76 4.13.11 8.26.38 12.14-1.84a20.34 20.34 0 0 0 9.49-23C193.67 6.36 185.16.17 176.08.13h-26c-9.16 0-18.35-.34-27.49.1-8.33.4-14.88 4.1-18.42 12.23-2.56 5.89-1 16.09 4.75 21.54 5.43 5.13 11.52 5.32 18 5.1 2.67-.09 4.2.68 3.88 3.63-.29 2.59 1.09 5.75-3.42 6.43a145.43 145.43 0 0 0-65.64 27c-25.46 18.8-43.71 43-53.76 73C1.46 168.86-1.4 189 .66 209.89 2.54 229 7.39 247.15 16 264.11a149.29 149.29 0 0 0 33.21 43.08c25.47 23 55.47 35.51 89.25 38.75 20.87 2 41.49-1 61.29-8a146.91 146.91 0 0 0 67.12-47.37c26.95-33.57 37.78-71.7 32.02-114.41zM148.18 318.45C82.48 317.35 26.53 263 27.3 194.59c.74-66.1 56-121.62 125-120.78 66.44.8 121 55.19 121 122.13.81 68.06-56.67 123.67-125.12 122.51z"/><path fill="#d22a57" d="M152.28 73.81C83.32 73 28 128.5 27.3 194.59 26.53 263 82.48 317.35 148.18 318.45c68.45 1.15 125.93-54.5 125.09-122.51 0-66.94-54.55-121.33-120.99-122.13zm-1.9 232.28C87.09 305.92 39 253.92 39.7 194.21c.72-58.63 50.62-108 110.61-108.06a110.58 110.58 0 0 1 110.55 110.51c0 60.08-49.86 109.59-110.48 109.43z"/></symbol><symbol viewBox="0 0 8.67 18.94" id="facebok-logo" xmlns="http://www.w3.org/2000/svg"><path fill="#d22856" d="M6.27 3.36h2.4V0H5.8C2.66.18 1.54 2.39 1.95 6.11H0v3.52h2v9.31h3.8V9.63h2.85V6.11H5.79c-.03-1.04-.04-2.4.48-2.75z"/></symbol><symbol viewBox="0 0 78.67 63.79" id="quote" xmlns="http://www.w3.org/2000/svg"><title>quote</title><path fill="#efefef" d="M35 7.06q-5.55 3.18-9 5.48a41.36 41.36 0 0 0-7 6.06 27.69 27.69 0 0 0-5.06 7.4 33.77 33.77 0 0 0-2.48 10h5.67q7.32 0 11.52 3.6t4.19 10.6a14 14 0 0 1-3.72 9.27q-3.72 4.32-10.22 4.32-10.16 0-14.53-6.66T0 39.62a29.61 29.61 0 0 1 3.31-14 49.53 49.53 0 0 1 8-11.26 58 58 0 0 1 10.31-8.58Q27 2.24 30.71 0zm43.71 0q-5.55 3.18-9 5.48a41.4 41.4 0 0 0-7 6.06 27.29 27.29 0 0 0-5.14 7.48 34.37 34.37 0 0 0-2.4 9.92h5.67q7.32 0 11.52 3.6t4.19 10.6a14 14 0 0 1-3.72 9.27q-3.72 4.31-10.22 4.31-10.16 0-14.53-6.66t-4.37-17.5a29.6 29.6 0 0 1 3.31-14 49.44 49.44 0 0 1 8-11.26 58 58 0 0 1 10.3-8.58q5.44-3.54 9.1-5.78z"/></symbol><symbol viewBox="0 0 49.95 24.01" id="toggle-open" xmlns="http://www.w3.org/2000/svg"><title>Открыть меню</title><g fill="#fff"><path d="M1.14 0A1.06 1.06 0 0 0 0 1v2a1.07 1.07 0 0 0 1.14 1h47.67a1.06 1.06 0 0 0 1.14-1V1a1.07 1.07 0 0 0-1.14-1zm0 10A1.06 1.06 0 0 0 0 11v2a1.07 1.07 0 0 0 1.14 1h47.67a1.06 1.06 0 0 0 1.14-1v-2a1.07 1.07 0 0 0-1.14-1zm0 10A1.06 1.06 0 0 0 0 21v2a1.07 1.07 0 0 0 1.14 1h47.67a1.06 1.06 0 0 0 1.14-1v-2a1.07 1.07 0 0 0-1.14-1z"/><path d="M1.14 0A1.06 1.06 0 0 0 0 1v2a1.07 1.07 0 0 0 1.14 1h47.67a1.06 1.06 0 0 0 1.14-1V1a1.07 1.07 0 0 0-1.14-1zm0 10A1.06 1.06 0 0 0 0 11v2a1.07 1.07 0 0 0 1.14 1h47.67a1.06 1.06 0 0 0 1.14-1v-2a1.07 1.07 0 0 0-1.14-1zm0 10A1.06 1.06 0 0 0 0 21v2a1.07 1.07 0 0 0 1.14 1h47.67a1.06 1.06 0 0 0 1.14-1v-2a1.07 1.07 0 0 0-1.14-1z"/></g></symbol><symbol viewBox="0 0 17.5 14.66" id="twitter-logo" xmlns="http://www.w3.org/2000/svg"><path fill="#d22856" d="M11.28.15A3.29 3.29 0 0 1 15 1.3c.69-.23 1.37-.47 2.07-.69a2.25 2.25 0 0 1-.88 1.73 1.64 1.64 0 0 0 1.34-.48 2.9 2.9 0 0 1-1.61 2c-.24 6.59-3.27 11-10.38 10.82H5c-.42 0-4.29-.45-5-1.84a6.57 6.57 0 0 0 4.84-1.15c-1-.29-2.76-.46-3.07-2.88A2.13 2.13 0 0 0 3 8.9C1.76 8.07.39 7.37.46 5.22a2 2 0 0 0 1.38.46C1.12 5.44-.19 2.4.92.84c1.87 1.81 3.85 3.52 7.37 3.69C8.51 2.29 9.46.79 11.28.15z"/></symbol><symbol viewBox="0 0 43.92 41.99" id="windows-logo" xmlns="http://www.w3.org/2000/svg"><title>windows-logo</title><path fill="#f05423" d="M20.87 20H0V0h20.87z"/><path fill="#84c441" d="M43.92 20H23V0h20.92z"/><path fill="#2dabe2" d="M20.87 42H0V22h20.87z"/><path fill="#f9bc15" d="M43.92 42H23V22h20.92z"/></symbol><symbol viewBox="0 0 14.64 13.96" id="youtube-logo" xmlns="http://www.w3.org/2000/svg"><path fill="#d22856" d="M1.78 13.78A1.14 1.14 0 0 1 0 12.67V1.29A1.14 1.14 0 0 1 1.78.18l12.13 5.93c1 .48 1 1.26 0 1.74z"/></symbol></svg>